<svg id="Calque_1" data-name="Calque 1" xmlns="http://www.w3.org/2000/svg" viewBox="0 0 61.17 63.32"><defs><style>.cls-1,.cls-2,.cls-3,.cls-4{fill:none;stroke-miterlimit:10;}.cls-1,.cls-2{stroke:#178aae;}.cls-2,.cls-4{stroke-linecap:round;}.cls-3,.cls-4{stroke:#000;}</style></defs><circle class="cls-1" cx="20.09" cy="4.63" r="3.5"/><line class="cls-1" x1="20.09" y1="8.14" x2="20.09" y2="13.94"/><circle class="cls-1" cx="41.67" cy="4.63" r="3.5"/><line class="cls-1" x1="41.67" y1="8.14" x2="41.67" y2="13.94"/><path class="cls-1" d="M12.29,14.06a47.6,47.6,0,0,1,6.32-.12H33.84q6.91,0,13.82,0a7.28,7.28,0,0,1,5.1,1.42,5.94,5.94,0,0,1,2.41,4.19V45.58A11.9,11.9,0,0,1,54,51.63a5,5,0,0,1-2.21,2.18,7.11,7.11,0,0,1-3.24.3c-3.25-.23-6.52-.18-9.78-.22a7.41,7.41,0,0,0-1.94.15,5.75,5.75,0,0,0-1.69,1L33,56.34,28,59.6l-4.38,2.81-.17-8c0-.12-9.2.13-9.95,0a8.93,8.93,0,0,1-5-2.9C7,49.75,7.3,47.07,7.41,44.92c.22-4.5.06-9,.06-13.54V21c0-.6,0-1.23,0-1.84.18-2.1,2.22-4.73,4.37-5.07Z"/><path class="cls-2" d="M16.94,28.39s4.73-7,8.25,0"/><path class="cls-2" d="M37.28,28.39s4.72-7,8.25,0"/><path class="cls-2" d="M18.46,39.88s11.42,11.64,22.94,0"/><path class="cls-2" d="M55.17,28.39s12.38,5.32,0,11.5"/><path class="cls-2" d="M7.3,28.39s-12.38,5.32,0,11.5"/><circle class="cls-3" cx="18.79" cy="4" r="3.5"/><line class="cls-3" x1="18.79" y1="7.51" x2="18.79" y2="13.31"/><circle class="cls-3" cx="40.37" cy="4" r="3.5"/><line class="cls-3" x1="40.37" y1="7.51" x2="40.37" y2="13.31"/><path class="cls-3" d="M11,13.43a49.39,49.39,0,0,1,6.32-.12H32.55q6.9,0,13.81,0a7.27,7.27,0,0,1,5.1,1.42,5.94,5.94,0,0,1,2.42,4.19V45a11.79,11.79,0,0,1-1.19,6,5,5,0,0,1-2.21,2.18,7,7,0,0,1-3.24.3c-3.25-.23-6.52-.18-9.77-.22a8,8,0,0,0-1.95.15,5.88,5.88,0,0,0-1.69,1l-2.09,1.35L26.67,59l-4.39,2.81-.17-8c0-.13-9.19.12-9.95,0a9,9,0,0,1-4.95-2.91c-1.56-1.76-1.2-4.44-1.1-6.59.22-4.5.06-9,.06-13.54V20.41c0-.6,0-1.23,0-1.83.18-2.11,2.22-4.74,4.36-5.08Z"/><path class="cls-4" d="M15.65,27.76s4.72-7,8.25,0"/><path class="cls-4" d="M36,27.76s4.73-7,8.25,0"/><path class="cls-4" d="M17.16,39.25s11.43,11.65,23,0"/><path class="cls-4" d="M53.88,27.76s12.38,5.32,0,11.5"/><path class="cls-4" d="M6,27.76s-12.38,5.32,0,11.5"/></svg>